# xmcd CD database file
#
# Track frame offsets:
#	150
#	16887
#	32725
#	51267
#	68177
#	85216
#	103972
#	120361
#	137882
#	156899
#	173694
#	190542
#
# Disc length: 2766 seconds
#
# Revision: 0
# Processed by: cddbd v1.5.1PL0 Copyright (c) Steve Scherf et al.
# Submitted via: CdAid (MTCDDB.DLL V2003.12.21)
#
DISCID=990acc0c
DTITLE=Maria Diaz - Cosejo De Mujer
DYEAR=2002
DGENRE=Latin
TTITLE0=El Hombre Que Quise
TTITLE1=Consejo De Mujer
TTITLE2=Me Lo Mando Dios (Bachata)
TTITLE3=Sacrifico
TTITLE4=De Palp Pa` Lena
TTITLE5=No Soy Esclava
TTITLE6=Fermin Checo
TTITLE7=Los Hijos De Negro
TTITLE8=Zapatos Bailaos (Duo Con Johnn Ventura)
TTITLE9=Mi Viejo Querido
TTITLE10=Lo Pongo A Dormir En El Piso
TTITLE11=Maria Vuelve
EXTD=A Duo Con Johnny Ventura ID3G:  86 YEAR: 2002
EXTT0=
EXTT1=
EXTT2=
EXTT3=
EXTT4=
EXTT5=
EXTT6=
EXTT7=
EXTT8=
EXTT9=
EXTT10=
EXTT11=
PLAYORDER=
